<svg width="25" height="27" viewBox="0 0 25 27" fill="none" xmlns="http://www.w3.org/2000/svg">
<path d="M19.2869 11.875C19.989 18.3698 22.75 20.3333 22.75 20.3333H1C1 20.3333 4.625 17.756 4.625 8.73333C4.625 6.68279 5.38867 4.71563 6.74804 3.26563C8.10863 1.81562 9.95375 1 11.875 1C12.2822 1 12.687 1.03625 13.0833 1.10875M13.9654 23.9583C13.7532 24.3249 13.4484 24.6292 13.0815 24.8407C12.7146 25.0522 12.2985 25.1636 11.875 25.1636C11.4515 25.1636 11.0354 25.0522 10.6685 24.8407C10.3016 24.6292 9.99678 24.3249 9.78458 23.9583M20.3333 8.25C21.2947 8.25 22.2168 7.86808 22.8966 7.18826C23.5764 6.50844 23.9583 5.58641 23.9583 4.625C23.9583 3.66359 23.5764 2.74156 22.8966 2.06174C22.2168 1.38192 21.2947 1 20.3333 1C19.3719 1 18.4499 1.38192 17.7701 2.06174C17.0903 2.74156 16.7083 3.66359 16.7083 4.625C16.7083 5.58641 17.0903 6.50844 17.7701 7.18826C18.4499 7.86808 19.3719 8.25 20.3333 8.25Z" stroke="white" stroke-width="1.8125" stroke-linecap="round" stroke-linejoin="round"/>
</svg>
